<?xml version="1.0" standalone="no"?>
<!DOCTYPE svg PUBLIC "-//W3C//DTD SVG 20010904//EN"
 "http://www.w3.org/TR/2001/REC-SVG-20010904/DTD/svg10.dtd">
<svg version="1.0" xmlns="http://www.w3.org/2000/svg"
 width="500.000000pt" height="500.000000pt" viewBox="0 0 500.000000 500.000000"
 preserveAspectRatio="xMidYMid meet">

<g transform="translate(0.000000,500.000000) scale(0.100000,-0.100000)"
fill="#000000" stroke="none">
<path d="M970 2360 l0 -180 45 0 45 0 0 180 0 180 -45 0 -45 0 0 -180z"/>
<path d="M1074 2527 c-11 -30 1 -52 31 -57 51 -9 41 -70 -11 -70 -20 0 -24 -5
-24 -30 0 -24 4 -30 21 -30 33 0 59 -19 59 -43 0 -31 -18 -47 -53 -47 -26 0
-28 -3 -25 -32 3 -33 3 -33 53 -30 59 4 89 21 110 63 20 38 12 82 -21 108 -19
15 -21 20 -9 25 26 10 37 53 21 89 -18 45 -36 57 -95 64 -41 5 -52 3 -57 -10z"/>
<path d="M1393 2533 l-53 -4 0 -175 0 -176 114 4 c63 1 117 6 120 9 3 3 9 20
12 37 l7 32 -82 0 -81 0 0 100 0 100 76 0 75 0 -3 38 -3 37 -65 1 c-36 0 -89
-1 -117 -3z"/>
<path d="M1744 2513 c-4 -15 -26 -94 -48 -175 -41 -143 -41 -147 -21 -152 50
-14 64 -7 75 35 l11 40 51 -3 c49 -3 52 -5 63 -38 11 -32 16 -35 53 -38 35 -3
42 0 41 15 0 10 -22 90 -48 178 l-47 160 -62 3 c-60 3 -62 2 -68 -25z m96
-170 c0 -8 -13 -13 -31 -13 -24 0 -29 4 -25 18 3 9 10 37 17 62 l12 45 13 -50
c8 -27 14 -56 14 -62z"/>
<path d="M2050 2415 c0 -171 20 -213 108 -231 31 -6 32 -5 32 28 0 21 -7 40
-20 51 -18 15 -20 29 -20 147 l0 130 -50 0 -50 0 0 -125z"/>
<path d="M2248 2413 c3 -120 2 -130 -17 -147 -13 -12 -21 -31 -21 -53 0 -37
11 -41 63 -19 57 23 65 47 69 202 l3 139 -50 3 -50 3 3 -128z"/>
<path d="M2424 2526 c-3 -8 -4 -25 -2 -38 3 -23 5 -23 141 -26 l138 -3 -3 38
-3 38 -133 3 c-108 2 -133 0 -138 -12z"/>
<path d="M2782 2363 l3 -178 48 -3 47 -3 0 180 0 181 -50 0 -50 0 2 -177z"/>
<path d="M3060 2518 c-136 -69 -109 -305 38 -334 31 -6 32 -6 32 29 0 22 -6
37 -15 41 -27 10 -48 75 -42 130 3 38 10 55 31 71 18 15 26 30 26 53 0 38 -10
40 -70 10z"/>
<path d="M3140 2506 c0 -26 5 -36 21 -41 24 -8 49 -61 49 -103 0 -43 -19 -91
-41 -103 -25 -13 -27 -79 -3 -79 9 0 32 -9 50 -21 l34 -21 20 24 c24 29 24 35
3 47 -16 9 -16 12 3 48 57 104 23 229 -73 269 -52 22 -63 18 -63 -20z"/>
<path d="M3398 2403 c4 -155 13 -181 66 -207 55 -26 76 -22 76 17 0 21 -7 36
-20 44 -17 12 -20 26 -22 145 l-3 133 -50 3 -50 3 3 -138z"/>
<path d="M3588 2406 c3 -127 2 -135 -17 -146 -15 -8 -21 -21 -21 -47 0 -35 1
-35 33 -29 39 8 78 35 94 67 8 15 13 71 13 157 l0 132 -52 0 -53 0 3 -134z"/>
<path d="M3850 2533 l-55 -4 3 -175 3 -176 114 3 c62 2 115 6 118 9 2 3 7 20
10 38 l7 32 -80 0 -80 0 0 100 0 99 73 3 72 3 0 35 0 35 -65 1 c-36 0 -90 -1
-120 -3z"/>
<path d="M2518 2315 l3 -135 45 0 44 0 0 135 0 135 -47 0 -48 0 3 -135z"/>
<path d="M1450 2365 l0 -35 60 0 60 0 0 35 0 35 -60 0 -60 0 0 -35z"/>
<path d="M3900 2365 l0 -35 65 0 65 0 0 35 0 35 -65 0 -65 0 0 -35z"/>
</g>
</svg>
